<svg xmlns="http://www.w3.org/2000/svg" viewBox="0 0 430 190" width="430" height="190" role="img" aria-label="FinTech Dashboard project card" font-family="ui-sans-serif,-apple-system,Segoe UI,Helvetica,Arial,sans-serif"><defs><linearGradient id="gfintech-dashboardlight" x1="0" y1="0" x2="1" y2="0"><stop offset="0" stop-color="#5B3FD1"/><stop offset="1" stop-color="#0E7490"/></linearGradient><clipPath id="kfintech-dashboardlight"><rect width="430" height="190" rx="12"/></clipPath></defs><rect x="0.5" y="0.5" width="429" height="189" rx="12" fill="#FFFFFF" stroke="#D6D2EA"/><rect width="430" height="3" fill="url(#gfintech-dashboardlight)" clip-path="url(#kfintech-dashboardlight)"/><text x="20" y="36" font-family="ui-monospace,SFMono-Regular,Menlo,Consolas,monospace" font-size="10.5" letter-spacing="1.1" fill="#0E7490">FINTECH · FRONTEND</text><rect x="313" y="23" width="97" height="19" rx="9.5" fill="#0E7490" fill-opacity=".12" stroke="#0E7490" stroke-opacity=".45"/><circle cx="324" cy="32.5" r="3.2" fill="#0E7490"></circle><text x="333" y="36.5" font-family="ui-monospace,SFMono-Regular,Menlo,Consolas,monospace" font-size="10" font-weight="700" fill="#0E7490">OPEN SOURCE</text><text x="20" y="66" font-size="19" font-weight="700" fill="#1C1A33">FinTech Dashboard</text><text x="20" y="86" font-size="12" font-weight="600" fill="#5B3FD1">Banking admin dashboard UI</text><text x="20" y="108" font-size="11.5" fill="#35324F">Built from the BankDash Figma kit: dashboard, transactions, accounts,</text><text x="20" y="124" font-size="11.5" fill="#35324F">customers, analytics and settings. Recharts charts, React Router,</text><text x="20" y="140" font-size="11.5" fill="#35324F">Zustand state, fully responsive.</text><rect x="20" y="152" width="46" height="20" rx="6" fill="#F1EFFA"/><text x="43.0" y="166" text-anchor="middle" font-family="ui-monospace,SFMono-Regular,Menlo,Consolas,monospace" font-size="10.5" fill="#4A33B0">React</text><rect x="72" y="152" width="78" height="20" rx="6" fill="#F1EFFA"/><text x="111.1" y="166" text-anchor="middle" font-family="ui-monospace,SFMono-Regular,Menlo,Consolas,monospace" font-size="10.5" fill="#4A33B0">TypeScript</text><rect x="156" y="152" width="65" height="20" rx="6" fill="#F1EFFA"/><text x="188.7" y="166" text-anchor="middle" font-family="ui-monospace,SFMono-Regular,Menlo,Consolas,monospace" font-size="10.5" fill="#4A33B0">Recharts</text><rect x="227" y="152" width="59" height="20" rx="6" fill="#F1EFFA"/><text x="256.7" y="166" text-anchor="middle" font-family="ui-monospace,SFMono-Regular,Menlo,Consolas,monospace" font-size="10.5" fill="#4A33B0">Zustand</text><path transform="translate(396,155)" d="M2 12 12 2M4.5 2H12v7.5" fill="none" stroke="#5B3FD1" stroke-width="1.8" stroke-linecap="round" stroke-linejoin="round"/></svg>