<svg xmlns="http://www.w3.org/2000/svg" viewBox="0 0 460 206" width="460" height="206" role="img" aria-label="most used languages" font-family="ui-sans-serif,-apple-system,Segoe UI,Helvetica,Arial,sans-serif"><defs><linearGradient id="glangsdark" x1="0" y1="0" x2="1" y2="0"><stop offset="0" stop-color="#B69CFF"/><stop offset="1" stop-color="#67E8F9"/></linearGradient><clipPath id="klangsdark"><rect width="460" height="206" rx="12"/></clipPath></defs><rect x="0.5" y="0.5" width="459" height="205" rx="12" fill="#0F1024" stroke="#2A2C4F"/><rect width="460" height="3" fill="url(#glangsdark)" clip-path="url(#klangsdark)"/><text x="22" y="38" font-family="ui-monospace,SFMono-Regular,Menlo,Consolas,monospace" font-size="13" font-weight="700" fill="#B69CFF">$ cat languages.log</text><line x1="22" y1="52" x2="438" y2="52" stroke="#2A2C4F"/><clipPath id="bardark"><rect x="22" y="66" width="416" height="10" rx="5"/></clipPath><rect x="22" y="66" width="416" height="10" rx="5" fill="#1E2040"/><g clip-path="url(#bardark)"><rect x="22.0" y="66" width="166.9" height="10" fill="#3178c6"/><rect x="188.4" y="66" width="104.5" height="10" fill="#f1e05a"/><rect x="292.4" y="66" width="62.9" height="10" fill="#b07219"/><rect x="354.8" y="66" width="33.8" height="10" fill="#3572A5"/><rect x="388.1" y="66" width="29.6" height="10" fill="#663399"/><rect x="417.2" y="66" width="21.3" height="10" fill="#8B8FB5"/></g><circle cx="27" cy="98" r="5" fill="#3178c6"/><text x="38" y="102" font-size="12" fill="#C3C5E0">TypeScript</text><text x="212" y="102" text-anchor="end" font-family="ui-monospace,SFMono-Regular,Menlo,Consolas,monospace" font-size="11.5" fill="#8B8FB5">40.0%</text><circle cx="235" cy="98" r="5" fill="#f1e05a"/><text x="246" y="102" font-size="12" fill="#C3C5E0">JavaScript</text><text x="420" y="102" text-anchor="end" font-family="ui-monospace,SFMono-Regular,Menlo,Consolas,monospace" font-size="11.5" fill="#8B8FB5">25.0%</text><circle cx="27" cy="120" r="5" fill="#b07219"/><text x="38" y="124" font-size="12" fill="#C3C5E0">Java</text><text x="212" y="124" text-anchor="end" font-family="ui-monospace,SFMono-Regular,Menlo,Consolas,monospace" font-size="11.5" fill="#8B8FB5">15.0%</text><circle cx="235" cy="120" r="5" fill="#3572A5"/><text x="246" y="124" font-size="12" fill="#C3C5E0">Python</text><text x="420" y="124" text-anchor="end" font-family="ui-monospace,SFMono-Regular,Menlo,Consolas,monospace" font-size="11.5" fill="#8B8FB5">8.0%</text><circle cx="27" cy="142" r="5" fill="#663399"/><text x="38" y="146" font-size="12" fill="#C3C5E0">CSS</text><text x="212" y="146" text-anchor="end" font-family="ui-monospace,SFMono-Regular,Menlo,Consolas,monospace" font-size="11.5" fill="#8B8FB5">7.0%</text><circle cx="235" cy="142" r="5" fill="#8B8FB5"/><text x="246" y="146" font-size="12" fill="#C3C5E0">Other</text><text x="420" y="146" text-anchor="end" font-family="ui-monospace,SFMono-Regular,Menlo,Consolas,monospace" font-size="11.5" fill="#8B8FB5">5.0%</text><text x="438" y="38" text-anchor="end" font-size="10.5" fill="#8B8FB5">placeholder</text></svg>